# xmcd
#
# Track frame offsets: 
#        150
#        20919
#        35433
#        54005
#        68189
#        83626
#        99138
#        112745
#        131062
#        140461
#
# Disc length: 2273 seconds
#
# Revision: 6
# Processed by: cddbd v1.5.2PL0 Copyright (c) Steve Scherf et al.
# Submitted via: ExactAudioCopy v1.0b3
#
DISCID=7808df0a
DTITLE=Neil Young - Harvest
DYEAR=1972
DGENRE=Country
TTITLE0=Out on the weekend
TTITLE1=Harvest
TTITLE2=A Man Needs A Maid
TTITLE3=Heart Of Gold
TTITLE4=Are You Ready For The Country?
TTITLE5=Old Man
TTITLE6=There's A World
TTITLE7=Alabama
TTITLE8=The Needle And The Damage Done (recorded in concert January 30
TTITLE8=, 1971)
TTITLE9=Words (Between the Lines of Age)
EXTD=
EXTT0=
EXTT1=
EXTT2=
EXTT3=
EXTT4=
EXTT5=
EXTT6=
EXTT7=
EXTT8=
EXTT9=
PLAYORDER=
